# xmcd
#
# Track frame offsets:
# 150
# 22700
# 41489
# 60001
# 81819
# 101624
# 123416
# 142223
# 160882
# 181878
# 207710
# 226197
# 247097
# 269255
# 290162
# 311425
#
# Disc length: 4460 seconds
#
#
# Revision: 1
# Processed by: cddbd v1.5.2PL0 Copyright (c) Steve Scherf et al.
# Submitted via: FreeRIP 2.70 
#
DISCID=dd116a10
DTITLE=Celine Dion - Let's Talk About Love
DYEAR=1997
DGENRE=Easy Listening
TTITLE0=The Reason
TTITLE1=Immortality
TTITLE2=Treat Her Like A Lady
TTITLE3=Why Oh Why
TTITLE4=Love Is On The Way
TTITLE5=Tell Him (duet with Barbara Streisand)
TTITLE6=Amar Haciendo El Amor
TTITLE7=When I Need You
TTITLE8=Miles To Go (Before I Sleep)
TTITLE9=Us
TTITLE10=Just A Little Bit Of Love
TTITLE11=My Heart Will Go On (Love Theme From 'Titanic')
TTITLE12=Where Is The Love
TTITLE13=Be The Man
TTITLE14=I Hate You Then I Love You (duet with Luciano Pavarotti)
TTITLE15=Let's Talk About Love
EXTD=YEAR: 1997 ID3G: 98
EXTT0=
EXTT1=
EXTT2=
EXTT3=
EXTT4=
EXTT5=
EXTT6=
EXTT7=
EXTT8=
EXTT9=
EXTT10=
EXTT11=
EXTT12=
EXTT13=
EXTT14=
EXTT15=
PLAYORDER=
